<svg width="36" height="37" viewBox="0 0 36 37" fill="none" xmlns="http://www.w3.org/2000/svg">
<rect y="0.5" width="36" height="36" stroke="#BCC1CA" style="stroke:#BCC1CA;stroke:color(display-p3 0.7373 0.7569 0.7922);stroke-opacity:1;"/>
<mask id="mask0_1_392" style="mask-type:luminance" maskUnits="userSpaceOnUse" x="1" y="2" width="34" height="32">
<path d="M34.3793 2.92554V33.6755H1.57933V2.92554H34.3793Z" fill="white" style="fill:white;fill-opacity:1;"/>
</mask>
<g mask="url(#mask0_1_392)">
<path d="M34.3794 24.1572C34.3794 29.3989 30.1258 33.6755 24.8702 33.6755H21.5619C20.6166 33.6755 19.6714 33.6755 18.7261 33.6755C18.4803 33.6755 18.4614 33.4485 18.6505 33.3917C18.7261 33.3917 18.8017 33.3539 18.8773 33.3349C19.0286 33.2971 19.1609 33.2592 19.3122 33.2214C19.4445 33.1835 19.5957 33.1457 19.7281 33.0889C19.8604 33.0511 19.9928 32.9943 20.1251 32.9375C20.2574 32.8808 20.3709 32.824 20.5032 32.7672C20.6166 32.7105 20.7489 32.6537 20.8624 32.578C20.9758 32.5212 21.0892 32.4455 21.2027 32.3888C21.3161 32.3131 21.4295 32.2563 21.524 32.1806C21.6375 32.1049 21.732 32.0292 21.8265 31.9535C21.921 31.8779 22.0156 31.8022 22.129 31.7075C22.2235 31.6319 22.318 31.5372 22.4126 31.4426C22.5071 31.348 22.5827 31.2723 22.6772 31.1777C22.7529 31.0831 22.8474 30.9885 22.923 30.8939C22.9986 30.7992 23.0742 30.7046 23.1499 30.5911C23.2255 30.4965 23.3011 30.3829 23.3767 30.2694C23.4523 30.1559 23.509 30.0612 23.5847 29.9477C23.6603 29.8342 23.717 29.7206 23.7737 29.6071C23.8304 29.4935 23.8871 29.38 23.9628 29.2475C24.0195 29.134 24.0762 29.0015 24.1329 28.888C24.1896 28.7555 24.2463 28.642 24.2841 28.5095C24.3409 28.3771 24.3787 28.2446 24.4354 28.1311C24.4732 27.9986 24.5299 27.8662 24.5677 27.7337C24.6055 27.6012 24.6433 27.4688 24.6811 27.3174C24.7189 27.1849 24.7568 27.0335 24.7946 26.9011C24.8324 26.7497 24.8702 26.6172 24.8891 26.4659C24.9269 26.3145 24.9458 26.182 24.9836 26.0306C25.0214 25.8792 25.0403 25.7279 25.0592 25.5764C25.0781 25.4251 25.1159 25.2737 25.1349 25.1223C25.1538 24.9709 25.1727 24.8195 25.2105 24.6492C25.2294 24.4979 25.2483 24.3275 25.2672 24.1762C25.2672 24.0248 25.305 23.8544 25.3239 23.6842C25.3239 23.5139 25.3617 23.3625 25.3617 23.1922C25.3617 23.0219 25.3806 22.8515 25.3995 22.7002C25.3995 22.5299 25.4184 22.3595 25.4373 22.1892C25.4373 22.0189 25.4562 21.8486 25.4562 21.6783C25.4562 21.508 25.4562 21.3377 25.4751 21.1674C25.4751 20.9971 25.4751 20.8079 25.4751 20.6375C25.4751 20.4672 25.4751 20.278 25.4751 20.1077C25.4751 19.9374 25.4751 19.7482 25.4751 19.5779C25.4751 19.3886 25.4751 19.2183 25.4751 19.0291C25.4751 18.8399 25.4751 18.6695 25.4751 18.4803C25.4751 18.3289 25.4751 18.1775 25.4751 18.0451V11.7248C25.4751 6.8426 29.4263 2.8877 34.3038 2.8877V24.1572H34.3794Z" fill="#636AE8" style="fill:#636AE8;fill:color(display-p3 0.3882 0.4157 0.9098);fill-opacity:1;"/>
</g>
<mask id="mask1_1_392" style="mask-type:luminance" maskUnits="userSpaceOnUse" x="1" y="2" width="34" height="32">
<path d="M34.4206 2.91455V33.6646H1.62059V2.91455H34.4206Z" fill="white" style="fill:white;fill-opacity:1;"/>
</mask>
<g mask="url(#mask1_1_392)">
<path d="M1.62061 12.4329C1.62061 7.17225 5.87421 2.91455 11.1298 2.91455H14.4381C15.3834 2.91455 16.3286 2.91455 17.2739 2.91455C17.5196 2.91455 17.5385 3.14163 17.3495 3.1984C17.2739 3.1984 17.1982 3.23624 17.1226 3.25517C16.9714 3.29301 16.839 3.33086 16.6878 3.3687C16.5555 3.40655 16.4042 3.44439 16.2719 3.50117C16.1395 3.53901 16.0072 3.59578 15.8749 3.65255C15.7425 3.70932 15.6291 3.76609 15.4968 3.82286C15.3834 3.87963 15.251 3.9364 15.1376 4.01209C15.0242 4.06886 14.9107 4.14455 14.7973 4.20132C14.6839 4.27701 14.5705 4.33378 14.4759 4.40948C14.3625 4.48516 14.268 4.56084 14.1735 4.63656C14.0789 4.71225 13.9844 4.78794 13.871 4.88256C13.7765 4.95825 13.6819 5.05288 13.5874 5.14746C13.4929 5.24209 13.4173 5.31778 13.3227 5.41241C13.2282 5.50699 13.1526 5.60162 13.077 5.69625C13.0014 5.79088 12.9257 5.88546 12.8501 5.99899C12.7745 6.09362 12.6989 6.20715 12.6233 6.32072C12.5476 6.43425 12.4909 6.52888 12.4153 6.64241C12.3397 6.75594 12.283 6.86946 12.2263 6.98299C12.1696 7.09656 12.1128 7.21009 12.0372 7.34256C11.9805 7.45609 11.9238 7.58856 11.8671 7.70209C11.8104 7.83456 11.7536 7.94809 11.7158 8.08056C11.6591 8.21299 11.6213 8.34546 11.5646 8.45899C11.5268 8.59146 11.4701 8.72394 11.4323 8.85641C11.3945 8.98888 11.3566 9.12131 11.3188 9.27272C11.281 9.40515 11.2432 9.55656 11.2054 9.68899C11.1676 9.84041 11.1298 9.97288 11.1109 10.1242C11.0731 10.2756 11.0542 10.4081 11.0163 10.5595C10.9785 10.7109 10.9596 10.8622 10.9407 11.0136C10.9218 11.165 10.884 11.3164 10.8651 11.4678C10.8462 11.6192 10.8273 11.7706 10.7895 11.9409C10.7706 12.0922 10.7517 12.2626 10.7328 12.4139C10.7328 12.5653 10.695 12.7356 10.6761 12.9059C10.6761 13.0762 10.6382 13.2276 10.6382 13.3979C10.6382 13.5682 10.6193 13.7386 10.6004 13.8899C10.6004 14.0602 10.5815 14.2306 10.5626 14.4009C10.5626 14.5711 10.5437 14.7415 10.5437 14.9118C10.5437 15.0821 10.5437 15.2524 10.5248 15.4227C10.5248 15.593 10.5248 15.7822 10.5248 15.9526C10.5248 16.1229 10.5248 16.3121 10.5248 16.4824C10.5248 16.6527 10.5248 16.8419 10.5248 17.0122C10.5248 17.2015 10.5248 17.3718 10.5248 17.561C10.5248 17.7502 10.5248 17.9206 10.5248 18.1098C10.5248 18.2612 10.5248 18.4126 10.5248 18.545V24.8653C10.5248 29.7475 6.57367 33.7024 1.69623 33.7024V12.4707L1.62061 12.4329Z" fill="#E8618C" style="fill:#E8618C;fill:color(display-p3 0.9098 0.3804 0.5490);fill-opacity:1;"/>
</g>
<mask id="mask2_1_392" style="mask-type:luminance" maskUnits="userSpaceOnUse" x="1" y="2" width="34" height="32">
<path d="M34.4017 2.92322V33.6732H1.60167V2.92322H34.4017Z" fill="white" style="fill:white;fill-opacity:1;"/>
</mask>
<g mask="url(#mask2_1_392)">
<path d="M22.4539 8.65687V27.9395C22.4539 30.3995 20.4688 32.3864 18.0112 32.3864C15.5536 32.3864 13.5685 30.3995 13.5685 27.9395V8.63797C13.5685 6.17797 15.5536 4.19104 18.0112 4.19104C20.4688 4.19104 22.4539 6.17797 22.4539 8.63797V8.65687Z" fill="#22CCB2" style="fill:#22CCB2;fill:color(display-p3 0.1333 0.8000 0.6980);fill-opacity:1;"/>
</g>
</svg>
